<svg width="20" height="20" viewBox="0 0 20 20" fill="none" xmlns="http://www.w3.org/2000/svg">
<path d="M16.8824 0H3.10737C1.94575 0 1 0.927887 1 2.06757V15.5825C1 16.7221 1.94575 17.65 3.10737 17.65H14.7647L14.2199 15.8043L15.5357 16.9945L16.7796 18.114L19 20V2.06757C18.9897 0.927887 18.044 0 16.8824 0Z" fill="#323232"/>
<path d="M13.9015 4.72373C13.1789 4.38563 12.4062 4.13991 11.5984 4C11.4992 4.17936 11.3833 4.42061 11.3034 4.61252C10.4447 4.48338 9.59383 4.48338 8.75091 4.61252C8.67101 4.42061 8.55248 4.17936 8.45238 4C7.6437 4.13991 6.87015 4.38653 6.14752 4.72552C4.68997 6.92807 4.29485 9.07591 4.49241 11.1932C5.45914 11.9152 6.39601 12.3537 7.31707 12.6407C7.54448 12.3277 7.7473 11.995 7.92203 11.6443C7.58926 11.5179 7.27053 11.3619 6.96937 11.1807C7.04927 11.1215 7.12742 11.0596 7.20292 10.9959C9.03978 11.8551 11.0356 11.8551 12.8505 10.9959C12.9269 11.0596 13.005 11.1215 13.084 11.1807C12.782 11.3627 12.4624 11.5188 12.1296 11.6452C12.3043 11.995 12.5063 12.3286 12.7346 12.6416C13.6565 12.3546 14.5943 11.9161 15.561 11.1932C15.7928 8.73871 15.165 6.6106 13.9015 4.72373ZM8.17228 9.8911C7.62087 9.8911 7.16868 9.37633 7.16868 8.74947C7.16868 8.1226 7.61122 7.60695 8.17228 7.60695C8.73336 7.60695 9.18554 8.1217 9.17588 8.74947C9.17675 9.37633 8.73336 9.8911 8.17228 9.8911ZM11.8811 9.8911C11.3297 9.8911 10.8775 9.37633 10.8775 8.74947C10.8775 8.1226 11.32 7.60695 11.8811 7.60695C12.4422 7.60695 12.8944 8.1217 12.8847 8.74947C12.8847 9.37633 12.4422 9.8911 11.8811 9.8911Z" fill="white"/>
</svg>
