<svg width="55" height="24" viewBox="0 0 55 24" fill="none" xmlns="http://www.w3.org/2000/svg">
<rect x="1" y="1" width="53" height="22" rx="11" fill="white" stroke="#323232" stroke-width="1.2"/>
<path d="M42.8466 3.00273C47.6478 2.91583 51.69 6.82285 51.7866 11.6395C51.887 16.6126 48.0398 20.7166 43.1807 20.8113C38.169 20.9136 34.0765 17.0375 34.0012 12.1204C33.922 7.04881 37.7595 3.09544 42.8466 3.00273ZM47.5802 12.2479C47.3871 13.6423 47.2036 14.9652 47.0124 16.3345L49.2836 17.1997C50.396 15.7493 51.1376 14.183 51.1512 12.2479H47.5802ZM51.1473 11.543C51.1589 9.74298 50.481 8.25974 49.4864 6.89045C49.3996 6.81834 49.2968 6.76795 49.1867 6.74343C49.0765 6.71891 48.9621 6.72099 48.8529 6.74947C48.2214 6.95418 47.6111 7.22843 47.0105 7.46791C47.2036 8.84107 47.3871 10.1717 47.5783 11.543H51.1473ZM34.5883 11.543H38.1902C38.3833 10.1563 38.5765 8.83913 38.7696 7.45825C38.2338 7.278 37.7084 7.06846 37.1956 6.83058C36.6876 6.56792 36.3941 6.69345 36.0947 7.14345C35.2151 8.45145 34.6931 9.96687 34.5806 11.5391L34.5883 11.543ZM38.7735 16.3422C38.5687 14.944 38.3717 13.5979 38.1747 12.2633H34.6733C34.5999 13.9803 35.4883 16.1588 36.6394 17.1572L38.7735 16.3422ZM38.7889 12.2498C39.0033 13.4994 39.1752 14.6292 39.4069 15.7493C39.4523 15.8508 39.5224 15.9393 39.6108 16.0068C39.6992 16.0743 39.803 16.1185 39.9129 16.1356C40.7704 16.0777 41.6241 15.9425 42.524 15.8401V12.2459L38.7889 12.2498ZM46.3866 16.2051C46.5798 14.8996 46.7613 13.6075 46.9544 12.2556H43.2502V15.8575L46.3866 16.2051ZM43.2386 11.5449H46.9699C46.7768 10.193 46.5836 8.91059 46.3905 7.61082L43.2386 7.97391V11.5449ZM39.4088 7.60696C39.2157 8.98591 39.0226 10.2509 38.841 11.541H42.582C42.582 10.7202 42.5337 9.95542 42.5936 9.19835C42.667 8.29257 42.5163 7.72863 41.402 7.82713C40.8052 7.87927 40.1968 7.70353 39.4088 7.60696ZM43.2927 3.58599V7.36362L46.0834 6.97736C45.4963 5.46901 44.8281 4.2774 43.285 3.58599H43.2927ZM42.5202 7.3443V3.75595C41.2474 4.01474 40.0964 5.42266 39.8608 7.02757L42.5202 7.3443ZM43.2927 16.5045V20.1739C44.8667 19.4999 45.5427 18.3006 46.0545 16.7497L43.2927 16.5045ZM42.5202 20.1739V16.5045L39.685 16.7652C40.2953 18.2755 40.9075 19.5289 42.5144 20.1759L42.5202 20.1739ZM45.2955 19.6428L45.4654 19.9132L48.737 17.9549L48.6385 17.6324L46.7999 16.9429C46.5315 17.4856 46.3364 17.924 46.1027 18.3392C45.8459 18.7873 45.56 19.2102 45.2897 19.6448L45.2955 19.6428ZM37.1666 17.6285L37.072 17.9761L40.4189 19.9345L40.5155 19.7413L38.9569 16.9583L37.1666 17.6285ZM48.6154 6.13145L48.7235 5.80506L45.4152 3.88534L45.2819 4.1171C45.5929 4.63276 45.9251 5.1349 46.207 5.66214C46.8502 6.87693 46.8405 6.88272 48.1036 6.37479C48.2735 6.31106 48.4396 6.22222 48.6096 6.13338L48.6154 6.13145ZM40.5966 3.92397C39.2061 4.39328 38.055 5.01708 36.9754 6.13145L38.9936 6.78809L40.5966 3.92397Z" fill="#323232"/>
<path d="M27 6H9V17.9991H27V6Z" fill="#B22234"/>
<path d="M27 16.6038H9Z" fill="black"/>
<path d="M9 7.39523H27M27 9.23695H9M9 11.0787H27M27 12.9204H9M9 14.7621H27M27 16.6038H9" stroke="white" stroke-width="0.728745"/>
<path d="M18.1193 6H9V12.5106H18.1193V6Z" fill="#3C3B6E"/>
<path d="M9.76947 6.27902L9.99229 6.97006L9.40894 6.54297H10.13L9.54665 6.97006L9.76947 6.27902Z" fill="white"/>
<path d="M10.5479 6.92114L10.7707 7.61218L10.1874 7.18509H10.9084L10.3251 7.61218L10.5479 6.92114Z" fill="white"/>
<path d="M12.0223 6.92114L12.2451 7.61218L11.6617 7.18509H12.3828L11.7995 7.61218L12.0223 6.92114Z" fill="white"/>
<path d="M13.589 6.92117L13.8119 7.61221L13.2285 7.18512H13.9496L13.3662 7.61221L13.589 6.92117Z" fill="white"/>
<path d="M15.0635 6.92114L15.2864 7.61218L14.703 7.18509H15.4241L14.8407 7.61218L15.0635 6.92114Z" fill="white"/>
<path d="M16.6307 6.92114L16.8535 7.61218L16.2701 7.18509H16.9912L16.4079 7.61218L16.6307 6.92114Z" fill="white"/>
<path d="M10.5479 8.22137L10.7707 8.91241L10.1874 8.48533H10.9084L10.3251 8.91241L10.5479 8.22137Z" fill="white"/>
<path d="M10.5479 9.5215L10.7707 10.2125L10.1874 9.78545H10.9084L10.3251 10.2125L10.5479 9.5215Z" fill="white"/>
<path d="M10.5479 10.8216L10.7707 11.5127L10.1874 11.0856H10.9084L10.3251 11.5127L10.5479 10.8216Z" fill="white"/>
<path d="M12.0223 8.22137L12.2451 8.91241L11.6617 8.48533H12.3828L11.7995 8.91241L12.0223 8.22137Z" fill="white"/>
<path d="M12.0223 9.5215L12.2451 10.2125L11.6617 9.78545H12.3828L11.7995 10.2125L12.0223 9.5215Z" fill="white"/>
<path d="M12.0223 10.8216L12.2451 11.5127L11.6617 11.0856H12.3828L11.7995 11.5127L12.0223 10.8216Z" fill="white"/>
<path d="M13.589 8.22137L13.8119 8.91241L13.2285 8.48533H13.9496L13.3662 8.91241L13.589 8.22137Z" fill="white"/>
<path d="M13.589 9.5215L13.8119 10.2125L13.2285 9.78545H13.9496L13.3662 10.2125L13.589 9.5215Z" fill="white"/>
<path d="M13.589 10.8216L13.8119 11.5127L13.2285 11.0856H13.9496L13.3662 11.5127L13.589 10.8216Z" fill="white"/>
<path d="M15.0635 8.22137L15.2864 8.91241L14.703 8.48533H15.4241L14.8407 8.91241L15.0635 8.22137Z" fill="white"/>
<path d="M15.0635 9.5215L15.2864 10.2125L14.703 9.78545H15.4241L14.8407 10.2125L15.0635 9.5215Z" fill="white"/>
<path d="M15.0635 10.8216L15.2864 11.5127L14.703 11.0856H15.4241L14.8407 11.5127L15.0635 10.8216Z" fill="white"/>
<path d="M16.6307 8.22137L16.8535 8.91241L16.2701 8.48533H16.9912L16.4079 8.91241L16.6307 8.22137Z" fill="white"/>
<path d="M16.6307 9.5215L16.8535 10.2125L16.2701 9.78545H16.9912L16.4079 10.2125L16.6307 9.5215Z" fill="white"/>
<path d="M16.6307 10.8216L16.8535 11.5127L16.2701 11.0856H16.9912L16.4079 11.5127L16.6307 10.8216Z" fill="white"/>
<path d="M11.2851 6.27905L11.5079 6.97009L10.9246 6.543H11.6456L11.0623 6.97009L11.2851 6.27905Z" fill="white"/>
<path d="M12.8006 6.27905L13.0234 6.97009L12.4401 6.543H13.1611L12.5778 6.97009L12.8006 6.27905Z" fill="white"/>
<path d="M14.3162 6.27905L14.539 6.97009L13.9557 6.543H14.6768L14.0934 6.97009L14.3162 6.27905Z" fill="white"/>
<path d="M15.8323 6.27902L16.0552 6.97006L15.4718 6.54297H16.1929L15.6095 6.97006L15.8323 6.27902Z" fill="white"/>
<path d="M17.3476 6.27902L17.5704 6.97006L16.9871 6.54297H17.7081L17.1248 6.97006L17.3476 6.27902Z" fill="white"/>
<path d="M9.76947 7.57126L9.99229 8.26229L9.40894 7.83521H10.13L9.54665 8.26229L9.76947 7.57126Z" fill="white"/>
<path d="M9.76947 8.86351L9.99229 9.55454L9.40894 9.12746H10.13L9.54665 9.55454L9.76947 8.86351Z" fill="white"/>
<path d="M9.76947 10.1557L9.99229 10.8468L9.40894 10.4197H10.13L9.54665 10.8468L9.76947 10.1557Z" fill="white"/>
<path d="M9.76947 11.448L9.99229 12.139L9.40894 11.7119H10.13L9.54665 12.139L9.76947 11.448Z" fill="white"/>
<path d="M11.2851 7.57126L11.5079 8.26229L10.9246 7.83521H11.6456L11.0623 8.26229L11.2851 7.57126Z" fill="white"/>
<path d="M11.2851 8.86351L11.5079 9.55454L10.9246 9.12746H11.6456L11.0623 9.55454L11.2851 8.86351Z" fill="white"/>
<path d="M11.2851 10.1557L11.5079 10.8468L10.9246 10.4197H11.6456L11.0623 10.8468L11.2851 10.1557Z" fill="white"/>
<path d="M11.2851 11.448L11.5079 12.139L10.9246 11.7119H11.6456L11.0623 12.139L11.2851 11.448Z" fill="white"/>
<path d="M12.8006 7.57126L13.0234 8.26229L12.4401 7.83521H13.1611L12.5778 8.26229L12.8006 7.57126Z" fill="white"/>
<path d="M12.8006 8.86351L13.0234 9.55454L12.4401 9.12746H13.1611L12.5778 9.55454L12.8006 8.86351Z" fill="white"/>
<path d="M12.8006 10.1557L13.0234 10.8468L12.4401 10.4197H13.1611L12.5778 10.8468L12.8006 10.1557Z" fill="white"/>
<path d="M12.8006 11.448L13.0234 12.139L12.4401 11.7119H13.1611L12.5778 12.139L12.8006 11.448Z" fill="white"/>
<path d="M14.3162 7.57126L14.539 8.26229L13.9557 7.83521H14.6768L14.0934 8.26229L14.3162 7.57126Z" fill="white"/>
<path d="M14.3162 8.86351L14.539 9.55454L13.9557 9.12746H14.6768L14.0934 9.55454L14.3162 8.86351Z" fill="white"/>
<path d="M14.3162 10.1557L14.539 10.8468L13.9557 10.4197H14.6768L14.0934 10.8468L14.3162 10.1557Z" fill="white"/>
<path d="M14.3162 11.448L14.539 12.139L13.9557 11.7119H14.6768L14.0934 12.139L14.3162 11.448Z" fill="white"/>
<path d="M15.8323 7.57126L16.0552 8.26229L15.4718 7.83521H16.1929L15.6095 8.26229L15.8323 7.57126Z" fill="white"/>
<path d="M15.8323 8.86351L16.0552 9.55454L15.4718 9.12746H16.1929L15.6095 9.55454L15.8323 8.86351Z" fill="white"/>
<path d="M15.8323 10.1557L16.0552 10.8468L15.4718 10.4197H16.1929L15.6095 10.8468L15.8323 10.1557Z" fill="white"/>
<path d="M15.8323 11.448L16.0552 12.139L15.4718 11.7119H16.1929L15.6095 12.139L15.8323 11.448Z" fill="white"/>
<path d="M17.3476 7.57126L17.5704 8.26229L16.9871 7.83521H17.7081L17.1248 8.26229L17.3476 7.57126Z" fill="white"/>
<path d="M17.3476 8.86351L17.5704 9.55454L16.9871 9.12746H17.7081L17.1248 9.55454L17.3476 8.86351Z" fill="white"/>
<path d="M17.3476 10.1557L17.5704 10.8468L16.9871 10.4197H17.7081L17.1248 10.8468L17.3476 10.1557Z" fill="white"/>
<path d="M17.3476 11.448L17.5704 12.139L16.9871 11.7119H17.7081L17.1248 12.139L17.3476 11.448Z" fill="white"/>
</svg>
