<svg width="128" height="32" viewBox="0 0 128 32" fill="none" xmlns="http://www.w3.org/2000/svg">
<rect x="0.5" y="0.5" width="127" height="31" fill="#EEEEEE" stroke="black"/>
<path d="M22.3242 13.332C21.7969 11.6523 20.5273 10.6367 18.6523 10.6367C16.2695 10.6367 14.4336 12.5117 14.4336 15.9297C14.4336 19.3477 16.25 21.2227 18.75 21.2227C21.0059 21.2227 22.5 19.7969 22.5391 17.5312H19.0625V15.7539H24.6289V17.3555C24.6289 20.9297 22.168 23.1953 18.7305 23.1953C14.9023 23.1953 12.3047 20.4023 12.3047 15.9297C12.3047 11.418 14.9805 8.66406 18.6328 8.66406C21.6992 8.66406 24.043 10.5781 24.5312 13.332H22.3242ZM39.3945 15.9297C39.3945 20.4414 36.6797 23.1953 33.0273 23.1953C29.3359 23.1953 26.6406 20.4414 26.6406 15.9297C26.6406 11.3984 29.3359 8.66406 33.0273 8.66406C36.6797 8.66406 39.3945 11.3984 39.3945 15.9297ZM37.2656 15.9297C37.2656 12.4922 35.4492 10.6367 33.0273 10.6367C30.5859 10.6367 28.7695 12.4922 28.7695 15.9297C28.7695 19.3672 30.5859 21.2227 33.0273 21.2227C35.4492 21.2227 37.2656 19.3672 37.2656 15.9297ZM54.3945 12.5898C54.2578 11.2812 53.1055 10.5195 51.4844 10.5195C49.7461 10.5195 48.6523 11.3984 48.6523 12.6094C48.6523 13.957 50.1172 14.4648 51.2305 14.7383L52.5977 15.1094C54.4141 15.5391 56.6602 16.5352 56.6797 19.0938C56.6602 21.4766 54.7656 23.2344 51.4258 23.2344C48.2617 23.2344 46.2695 21.6523 46.1328 19.0742H48.2812C48.418 20.6172 49.7656 21.3594 51.4258 21.3594C53.2227 21.3594 54.5312 20.4414 54.5508 19.0547C54.5312 17.8242 53.3789 17.3164 51.875 16.9258L50.1953 16.4766C47.9297 15.8516 46.5039 14.6992 46.5039 12.7266C46.5039 10.2852 48.6914 8.66406 51.543 8.66406C54.4141 8.66406 56.4258 10.3047 56.4844 12.5898H54.3945ZM58.9844 23V8.85938H61.1328V14.9922H68.1641V8.85938H70.3125V23H68.1641V16.8281H61.1328V23H58.9844ZM85.4883 15.9297C85.4883 20.4414 82.7734 23.1953 79.1211 23.1953C75.4297 23.1953 72.7344 20.4414 72.7344 15.9297C72.7344 11.3984 75.4297 8.66406 79.1211 8.66406C82.7734 8.66406 85.4883 11.3984 85.4883 15.9297ZM83.3594 15.9297C83.3594 12.4922 81.543 10.6367 79.1211 10.6367C76.6797 10.6367 74.8633 12.4922 74.8633 15.9297C74.8633 19.3672 76.6797 21.2227 79.1211 21.2227C81.543 21.2227 83.3594 19.3672 83.3594 15.9297ZM87.9102 23V8.85938H92.9492C96.2305 8.85938 97.8516 10.832 97.8516 13.4492C97.8516 16.0469 96.2305 18.0391 92.9492 18.0391H90.0586V23H87.9102ZM90.0586 16.2031H92.7344C94.8242 16.2031 95.6836 15.0312 95.6836 13.4492C95.6836 11.8477 94.8242 10.6953 92.7344 10.6953H90.0586V16.2031Z" fill="black"/>
<path d="M104 15.25C103.586 15.25 103.25 15.5858 103.25 16C103.25 16.4142 103.586 16.75 104 16.75L104 15.25ZM118.53 16.5303C118.823 16.2374 118.823 15.7626 118.53 15.4697L113.757 10.6967C113.464 10.4038 112.99 10.4038 112.697 10.6967C112.404 10.9896 112.404 11.4645 112.697 11.7574L116.939 16L112.697 20.2426C112.404 20.5355 112.404 21.0104 112.697 21.3033C112.99 21.5962 113.464 21.5962 113.757 21.3033L118.53 16.5303ZM104 16.75L118 16.75L118 15.25L104 15.25L104 16.75Z" fill="black"/>
</svg>
