<svg width="20" height="20" viewBox="0 0 20 20" fill="none" xmlns="http://www.w3.org/2000/svg">
<path fill-rule="evenodd" clip-rule="evenodd" d="M13.7483 13.7483C14.055 13.4416 14.5523 13.4416 14.859 13.7483L19.77 18.6593C20.0767 18.966 20.0767 19.4633 19.77 19.77C19.4633 20.0767 18.966 20.0767 18.6593 19.77L13.7483 14.859C13.4416 14.5523 13.4416 14.055 13.7483 13.7483Z" fill="#323232"/>
<path fill-rule="evenodd" clip-rule="evenodd" d="M8.77888 15.8023C12.6578 15.8023 15.8023 12.6578 15.8023 8.77881C15.8023 4.89985 12.6578 1.75533 8.77888 1.75533C4.89993 1.75533 1.75542 4.89985 1.75542 8.77881C1.75542 12.6578 4.89993 15.8023 8.77888 15.8023ZM8.77888 17.373C13.5253 17.373 17.3731 13.5253 17.3731 8.77881C17.3731 4.03236 13.5253 0.184601 8.77888 0.184601C4.03244 0.184601 0.184692 4.03236 0.184692 8.77881C0.184692 13.5253 4.03244 17.373 8.77888 17.373Z" fill="#323232"/>
</svg>
