<svg width="20" height="20" viewBox="0 0 20 20" fill="none" xmlns="http://www.w3.org/2000/svg">
<path d="M19.5489 4.51438C19.4258 4.03024 19.1833 3.58849 18.8458 3.23339C18.5084 2.87829 18.0878 2.62231 17.6261 2.49107C15.92 2.00001 9.99849 2 9.99849 2C9.99849 2 4.08293 2.00001 2.37084 2.47242C1.91069 2.60979 1.49208 2.86896 1.15531 3.22497C0.81854 3.58098 0.57497 4.02183 0.448071 4.50505C1.81894e-05 6.29215 1.52588e-05 9.99999 1.52588e-05 9.99999C1.52588e-05 9.99999 1.81894e-05 13.7296 0.448071 15.498C0.573135 15.9802 0.816359 16.4197 1.15364 16.773C1.49092 17.1262 1.91053 17.381 2.37084 17.512C4.09777 18 9.99849 18 9.99849 18C9.99849 18 15.914 18 17.6261 17.5307C18.0864 17.3997 18.506 17.1449 18.8433 16.7916C19.1806 16.4383 19.4239 15.9988 19.5489 15.5167C19.9999 13.7296 19.9999 10.0186 19.9999 10.0186C19.9999 10.0186 20.0177 6.28904 19.5489 4.50505V4.51438Z" fill="#323232"/>
<path d="M8.00002 7V13L14 10.0068L8.00002 7Z" fill="white"/>
</svg>
