<svg width="18" height="15" viewBox="0 0 18 15" fill="none" xmlns="http://www.w3.org/2000/svg">
<path d="M8.99997 3.59811C7.2696 3.59811 5.77452 4.61771 5.08335 6.08828C5.07355 6.54415 5.11276 7.93139 5.9804 8.4804C6.7598 8.97549 7.77449 9.18627 8.99997 7.92649C10.2254 6.6667 11.2646 6.90689 11.8137 7.16669C12.3627 7.42649 13.093 8.05884 12.9166 9.7647H12.9215C13.1813 9.20588 13.3283 8.58334 13.3283 7.92649C13.3283 5.53436 11.3921 3.59811 8.99997 3.59811Z" fill="#CD2E3A"/>
<path d="M12.9166 9.76471C13.098 8.06375 12.3627 7.4265 11.8137 7.1667C11.2647 6.9069 10.2206 6.66181 9 7.9265C7.77943 9.19119 6.75984 8.9755 5.98044 8.48041C5.1128 7.9314 5.06868 6.54416 5.08339 6.08829C4.82359 6.6471 4.67163 7.26964 4.67163 7.9265C4.67163 10.3186 6.60788 12.2549 9 12.2549C10.7304 12.2549 12.2254 11.2353 12.9166 9.76471Z" fill="#0047A0"/>
<path d="M2.38746 9.74135L1.79602 10.1356L4.19697 13.7373L4.7884 13.343L2.38746 9.74135Z" fill="black"/>
<path d="M0.5929 10.937L0.00146484 11.3313L2.40241 14.9329L2.99385 14.5387L0.5929 10.937Z" fill="black"/>
<path d="M1.49122 10.343L0.89978 10.7373L1.99829 12.3852L2.58972 11.9909L1.49122 10.343Z" fill="black"/>
<path d="M2.20117 12.6864L3.2992 14.3334L3.89233 13.9413L2.7894 12.2893L2.20117 12.6864Z" fill="black"/>
<path d="M18.0001 11.3236L17.407 10.9314L16.3138 12.5834L16.9021 12.9755L18.0001 11.3236Z" fill="black"/>
<path d="M15.0153 14.5392L15.6035 14.9313L16.7015 13.2794L16.1084 12.8873L15.0153 14.5392Z" fill="black"/>
<path d="M17.0979 10.7304L16.5047 10.3383L15.4116 11.9853L16.0048 12.3823L17.0979 10.7304Z" fill="black"/>
<path d="M14.1174 13.9412L14.7057 14.3334L15.8037 12.6863L15.2106 12.2942L14.1174 13.9412Z" fill="black"/>
<path d="M13.2159 13.3481L13.8091 13.7402L14.9022 12.0932L14.3091 11.6962L13.2159 13.3481Z" fill="black"/>
<path d="M15.6106 9.73988L14.5156 11.3901L15.1079 11.7831L16.2029 10.1329L15.6106 9.73988Z" fill="black"/>
<path d="M17.0975 5.11292L16.5044 5.50997L14.1172 1.89728L14.7103 1.50513L17.0975 5.11292Z" fill="black"/>
<path d="M17.4062 4.91198L17.9994 4.51983L16.9062 2.86789L16.3131 3.26004L17.4062 4.91198Z" fill="black"/>
<path d="M15.6124 0.911926L15.0144 1.29918L16.1075 2.95602L16.7007 2.56386L15.6124 0.911926Z" fill="black"/>
<path d="M15.1083 4.05664L14.5156 4.44891L15.6086 6.10034L16.2013 5.70806L15.1083 4.05664Z" fill="black"/>
<path d="M13.8135 2.09827L13.2203 2.49042L14.3135 4.14236L14.9017 3.7502L13.8135 2.09827Z" fill="black"/>
<path d="M2.38659 6.10308L1.79346 5.70602L4.20029 2.10803L4.78851 2.50509L2.38659 6.10308Z" fill="black"/>
<path d="M1.48986 5.50012L0.896729 5.10307L3.30356 1.50998L3.89669 1.90213L1.48986 5.50012Z" fill="black"/>
<path d="M0.593129 4.90207L0 4.50501L2.40683 0.911926L2.99996 1.30408L0.593129 4.90207Z" fill="black"/>
</svg>
