<svg width="18" height="12" viewBox="0 0 18 12" fill="none" xmlns="http://www.w3.org/2000/svg">
<path d="M18 0H0V11.9991H18V0Z" fill="#B22234"/>
<path d="M18 10.6038H0H18Z" fill="black"/>
<path d="M0 1.39523H18M18 3.23695H0M0 5.07867H18M18 6.92039H0M0 8.76211H18M18 10.6038H0" stroke="white" stroke-width="0.728745"/>
<path d="M9.1193 0H0V6.51063H9.1193V0Z" fill="#3C3B6E"/>
<path d="M0.769467 0.279022L0.992288 0.970057L0.408936 0.542974H1.13L0.546646 0.970057L0.769467 0.279022Z" fill="white"/>
<path d="M1.54791 0.921143L1.77073 1.61218L1.18738 1.18509H1.90844L1.32509 1.61218L1.54791 0.921143Z" fill="white"/>
<path d="M3.02227 0.921143L3.2451 1.61218L2.66174 1.18509H3.38281L2.79945 1.61218L3.02227 0.921143Z" fill="white"/>
<path d="M4.58905 0.921158L4.81187 1.61219L4.22852 1.18511H4.94958L4.36623 1.61219L4.58905 0.921158Z" fill="white"/>
<path d="M6.06353 0.921143L6.28636 1.61218L5.703 1.18509H6.42407L5.84071 1.61218L6.06353 0.921143Z" fill="white"/>
<path d="M7.63067 0.921143L7.85349 1.61218L7.27014 1.18509H7.9912L7.40785 1.61218L7.63067 0.921143Z" fill="white"/>
<path d="M1.54791 2.22137L1.77073 2.91241L1.18738 2.48533H1.90844L1.32509 2.91241L1.54791 2.22137Z" fill="white"/>
<path d="M1.54791 3.5215L1.77073 4.21253L1.18738 3.78545H1.90844L1.32509 4.21253L1.54791 3.5215Z" fill="white"/>
<path d="M1.54791 4.82162L1.77073 5.51266L1.18738 5.08558H1.90844L1.32509 5.51266L1.54791 4.82162Z" fill="white"/>
<path d="M3.02227 2.22137L3.2451 2.91241L2.66174 2.48533H3.38281L2.79945 2.91241L3.02227 2.22137Z" fill="white"/>
<path d="M3.02227 3.5215L3.2451 4.21253L2.66174 3.78545H3.38281L2.79945 4.21253L3.02227 3.5215Z" fill="white"/>
<path d="M3.02227 4.82162L3.2451 5.51266L2.66174 5.08558H3.38281L2.79945 5.51266L3.02227 4.82162Z" fill="white"/>
<path d="M4.58905 2.22137L4.81187 2.91241L4.22852 2.48533H4.94958L4.36623 2.91241L4.58905 2.22137Z" fill="white"/>
<path d="M4.58905 3.5215L4.81187 4.21253L4.22852 3.78545H4.94958L4.36623 4.21253L4.58905 3.5215Z" fill="white"/>
<path d="M4.58905 4.82162L4.81187 5.51266L4.22852 5.08558H4.94958L4.36623 5.51266L4.58905 4.82162Z" fill="white"/>
<path d="M6.06353 2.22137L6.28636 2.91241L5.703 2.48533H6.42407L5.84071 2.91241L6.06353 2.22137Z" fill="white"/>
<path d="M6.06353 3.5215L6.28636 4.21253L5.703 3.78545H6.42407L5.84071 4.21253L6.06353 3.5215Z" fill="white"/>
<path d="M6.06353 4.82162L6.28636 5.51266L5.703 5.08558H6.42407L5.84071 5.51266L6.06353 4.82162Z" fill="white"/>
<path d="M7.63067 2.22137L7.85349 2.91241L7.27014 2.48533H7.9912L7.40785 2.91241L7.63067 2.22137Z" fill="white"/>
<path d="M7.63067 3.5215L7.85349 4.21253L7.27014 3.78545H7.9912L7.40785 4.21253L7.63067 3.5215Z" fill="white"/>
<path d="M7.63067 4.82162L7.85349 5.51266L7.27014 5.08558H7.9912L7.40785 5.51266L7.63067 4.82162Z" fill="white"/>
<path d="M2.28509 0.279037L2.50791 0.970072L1.92456 0.542989H2.64562L2.06227 0.970072L2.28509 0.279037Z" fill="white"/>
<path d="M3.8006 0.279037L4.02342 0.970072L3.44006 0.542989H4.16113L3.57777 0.970072L3.8006 0.279037Z" fill="white"/>
<path d="M5.31622 0.279037L5.53904 0.970072L4.95569 0.542989H5.67675L5.0934 0.970072L5.31622 0.279037Z" fill="white"/>
<path d="M6.83233 0.279022L7.05515 0.970057L6.4718 0.542974H7.19286L6.60951 0.970057L6.83233 0.279022Z" fill="white"/>
<path d="M8.34759 0.279022L8.57041 0.970057L7.98706 0.542974H8.70812L8.12477 0.970057L8.34759 0.279022Z" fill="white"/>
<path d="M0.769467 1.57126L0.992288 2.26229L0.408936 1.83521H1.13L0.546646 2.26229L0.769467 1.57126Z" fill="white"/>
<path d="M0.769467 2.86351L0.992288 3.55454L0.408936 3.12746H1.13L0.546646 3.55454L0.769467 2.86351Z" fill="white"/>
<path d="M0.769467 4.15573L0.992288 4.84677L0.408936 4.41968H1.13L0.546646 4.84677L0.769467 4.15573Z" fill="white"/>
<path d="M0.769467 5.448L0.992288 6.13903L0.408936 5.71195H1.13L0.546646 6.13903L0.769467 5.448Z" fill="white"/>
<path d="M2.28509 1.57126L2.50791 2.26229L1.92456 1.83521H2.64562L2.06227 2.26229L2.28509 1.57126Z" fill="white"/>
<path d="M2.28509 2.86351L2.50791 3.55454L1.92456 3.12746H2.64562L2.06227 3.55454L2.28509 2.86351Z" fill="white"/>
<path d="M2.28509 4.15573L2.50791 4.84677L1.92456 4.41968H2.64562L2.06227 4.84677L2.28509 4.15573Z" fill="white"/>
<path d="M2.28509 5.448L2.50791 6.13903L1.92456 5.71195H2.64562L2.06227 6.13903L2.28509 5.448Z" fill="white"/>
<path d="M3.8006 1.57126L4.02342 2.26229L3.44006 1.83521H4.16113L3.57777 2.26229L3.8006 1.57126Z" fill="white"/>
<path d="M3.8006 2.86351L4.02342 3.55454L3.44006 3.12746H4.16113L3.57777 3.55454L3.8006 2.86351Z" fill="white"/>
<path d="M3.8006 4.15573L4.02342 4.84677L3.44006 4.41968H4.16113L3.57777 4.84677L3.8006 4.15573Z" fill="white"/>
<path d="M3.8006 5.448L4.02342 6.13903L3.44006 5.71195H4.16113L3.57777 6.13903L3.8006 5.448Z" fill="white"/>
<path d="M5.31622 1.57126L5.53904 2.26229L4.95569 1.83521H5.67675L5.0934 2.26229L5.31622 1.57126Z" fill="white"/>
<path d="M5.31622 2.86351L5.53904 3.55454L4.95569 3.12746H5.67675L5.0934 3.55454L5.31622 2.86351Z" fill="white"/>
<path d="M5.31622 4.15573L5.53904 4.84677L4.95569 4.41968H5.67675L5.0934 4.84677L5.31622 4.15573Z" fill="white"/>
<path d="M5.31622 5.448L5.53904 6.13903L4.95569 5.71195H5.67675L5.0934 6.13903L5.31622 5.448Z" fill="white"/>
<path d="M6.83233 1.57126L7.05515 2.26229L6.4718 1.83521H7.19286L6.60951 2.26229L6.83233 1.57126Z" fill="white"/>
<path d="M6.83233 2.86351L7.05515 3.55454L6.4718 3.12746H7.19286L6.60951 3.55454L6.83233 2.86351Z" fill="white"/>
<path d="M6.83233 4.15573L7.05515 4.84677L6.4718 4.41968H7.19286L6.60951 4.84677L6.83233 4.15573Z" fill="white"/>
<path d="M6.83233 5.448L7.05515 6.13903L6.4718 5.71195H7.19286L6.60951 6.13903L6.83233 5.448Z" fill="white"/>
<path d="M8.34759 1.57126L8.57041 2.26229L7.98706 1.83521H8.70812L8.12477 2.26229L8.34759 1.57126Z" fill="white"/>
<path d="M8.34759 2.86351L8.57041 3.55454L7.98706 3.12746H8.70812L8.12477 3.55454L8.34759 2.86351Z" fill="white"/>
<path d="M8.34759 4.15573L8.57041 4.84677L7.98706 4.41968H8.70812L8.12477 4.84677L8.34759 4.15573Z" fill="white"/>
<path d="M8.34759 5.448L8.57041 6.13903L7.98706 5.71195H8.70812L8.12477 6.13903L8.34759 5.448Z" fill="white"/>
</svg>
