<svg width="55" height="24" viewBox="0 0 55 24" fill="none" xmlns="http://www.w3.org/2000/svg">
<rect x="1" y="1" width="53" height="22" rx="11" fill="white" stroke="#323232" stroke-width="1.2"/>
<path d="M12.8466 3.00273C17.6478 2.91583 21.69 6.82285 21.7866 11.6395C21.887 16.6126 18.0398 20.7166 13.1807 20.8113C8.16896 20.9136 4.07652 17.0375 4.0012 12.1204C3.92202 7.04881 7.75951 3.09544 12.8466 3.00273ZM17.5802 12.2479C17.3871 13.6423 17.2036 14.9652 17.0124 16.3345L19.2836 17.1997C20.396 15.7493 21.1376 14.183 21.1512 12.2479H17.5802ZM21.1473 11.543C21.1589 9.74298 20.481 8.25974 19.4864 6.89045C19.3996 6.81834 19.2968 6.76795 19.1867 6.74343C19.0765 6.71891 18.9621 6.72099 18.8529 6.74947C18.2214 6.95418 17.6111 7.22843 17.0105 7.46791C17.2036 8.84107 17.3871 10.1717 17.5783 11.543H21.1473ZM4.58832 11.543H8.1902C8.38333 10.1563 8.57646 8.83913 8.76959 7.45825C8.23382 7.278 7.70836 7.06846 7.19557 6.83058C6.68764 6.56792 6.39409 6.69345 6.09474 7.14345C5.21514 8.45145 4.69313 9.96687 4.58059 11.5391L4.58832 11.543ZM8.77346 16.3422C8.56874 14.944 8.37174 13.5979 8.17474 12.2633H4.67329C4.5999 13.9803 5.4883 16.1588 6.63936 17.1572L8.77346 16.3422ZM8.7889 12.2498C9.00327 13.4994 9.17516 14.6292 9.40692 15.7493C9.45233 15.8508 9.52243 15.9393 9.61081 16.0068C9.69919 16.0743 9.80304 16.1185 9.91292 16.1356C10.7704 16.0777 11.6241 15.9425 12.524 15.8401V12.2459L8.7889 12.2498ZM16.3866 16.2051C16.5798 14.8996 16.7613 13.6075 16.9544 12.2556H13.2502V15.8575L16.3866 16.2051ZM13.2386 11.5449H16.9699C16.7768 10.193 16.5836 8.91059 16.3905 7.61082L13.2386 7.97391V11.5449ZM9.40885 7.60696C9.21572 8.98591 9.02259 10.2509 8.84105 11.541H12.582C12.582 10.7202 12.5337 9.95542 12.5936 9.19835C12.667 8.29257 12.5163 7.72863 11.402 7.82713C10.8052 7.87927 10.1968 7.70353 9.40885 7.60696ZM13.2927 3.58599V7.36362L16.0834 6.97736C15.4963 5.46901 14.8281 4.2774 13.285 3.58599H13.2927ZM12.5202 7.3443V3.75595C11.2474 4.01474 10.0964 5.42266 9.86078 7.02757L12.5202 7.3443ZM13.2927 16.5045V20.1739C14.8667 19.4999 15.5427 18.3006 16.0545 16.7497L13.2927 16.5045ZM12.5202 20.1739V16.5045L9.68502 16.7652C10.2953 18.2755 10.9075 19.5289 12.5144 20.1759L12.5202 20.1739ZM15.2955 19.6428L15.4654 19.9132L18.737 17.9549L18.6385 17.6324L16.7999 16.9429C16.5315 17.4856 16.3364 17.924 16.1027 18.3392C15.8459 18.7873 15.56 19.2102 15.2897 19.6448L15.2955 19.6428ZM7.16661 17.6285L7.07198 17.9761L10.4189 19.9345L10.5155 19.7413L8.95692 16.9583L7.16661 17.6285ZM18.6154 6.13145L18.7235 5.80506L15.4152 3.88534L15.2819 4.1171C15.5929 4.63276 15.9251 5.1349 16.207 5.66214C16.8502 6.87693 16.8405 6.88272 18.1036 6.37479C18.2735 6.31106 18.4396 6.22222 18.6096 6.13338L18.6154 6.13145ZM10.5966 3.92397C9.20607 4.39328 8.05501 5.01709 6.97541 6.13145L8.99362 6.78809L10.5966 3.92397Z" fill="#323232"/>
<path d="M37 7.59814C35.2696 7.59814 33.7745 8.61774 33.0834 10.0883C33.0735 10.5442 33.1128 11.9314 33.9804 12.4804C34.7598 12.9755 35.7745 13.1863 37 11.9265C38.2254 10.6667 39.2646 10.9069 39.8137 11.1667C40.3627 11.4265 41.093 12.0589 40.9166 13.7647H40.9215C41.1813 13.2059 41.3283 12.5834 41.3283 11.9265C41.3283 9.53439 39.3921 7.59814 37 7.59814Z" fill="#CD2E3A"/>
<path d="M40.9166 13.7647C41.098 12.0638 40.3627 11.4265 39.8137 11.1667C39.2647 10.9069 38.2206 10.6618 37 11.9265C35.7794 13.1912 34.7598 12.9755 33.9804 12.4804C33.1128 11.9314 33.0687 10.5442 33.0834 10.0883C32.8236 10.6471 32.6716 11.2697 32.6716 11.9265C32.6716 14.3187 34.6079 16.2549 37 16.2549C38.7304 16.2549 40.2254 15.2353 40.9166 13.7647Z" fill="#0047A0"/>
<path d="M30.3875 13.7414L29.796 14.1356L32.197 17.7373L32.7884 17.343L30.3875 13.7414Z" fill="black"/>
<path d="M28.5929 14.937L28.0015 15.3313L30.4024 18.933L30.9938 18.5387L28.5929 14.937Z" fill="black"/>
<path d="M29.4912 14.343L28.8998 14.7373L29.9983 16.3852L30.5897 15.9909L29.4912 14.343Z" fill="black"/>
<path d="M30.2012 16.6864L31.2992 18.3334L31.8923 17.9413L30.7894 16.2893L30.2012 16.6864Z" fill="black"/>
<path d="M46.0001 15.3236L45.407 14.9314L44.3138 16.5834L44.9021 16.9755L46.0001 15.3236Z" fill="black"/>
<path d="M43.0153 18.5392L43.6035 18.9314L44.7015 17.2794L44.1084 16.8873L43.0153 18.5392Z" fill="black"/>
<path d="M45.0979 14.7304L44.5047 14.3383L43.4116 15.9853L44.0048 16.3824L45.0979 14.7304Z" fill="black"/>
<path d="M42.1174 17.9412L42.7057 18.3334L43.8037 16.6863L43.2106 16.2942L42.1174 17.9412Z" fill="black"/>
<path d="M41.2159 17.3481L41.8091 17.7403L42.9022 16.0932L42.3091 15.6962L41.2159 17.3481Z" fill="black"/>
<path d="M43.6106 13.7399L42.5156 15.3901L43.1079 15.7831L44.2029 14.1329L43.6106 13.7399Z" fill="black"/>
<path d="M45.0975 9.11292L44.5044 9.50997L42.1172 5.89728L42.7103 5.50513L45.0975 9.11292Z" fill="black"/>
<path d="M45.4062 8.91198L45.9994 8.51983L44.9062 6.86789L44.3131 7.26004L45.4062 8.91198Z" fill="black"/>
<path d="M43.6124 4.91194L43.0144 5.29919L44.1075 6.95603L44.7007 6.56388L43.6124 4.91194Z" fill="black"/>
<path d="M43.1083 8.05664L42.5156 8.44891L43.6086 10.1003L44.2013 9.70806L43.1083 8.05664Z" fill="black"/>
<path d="M41.8135 6.09827L41.2203 6.49042L42.3135 8.14236L42.9017 7.7502L41.8135 6.09827Z" fill="black"/>
<path d="M30.3866 10.1031L29.7935 9.70602L32.2003 6.10803L32.7885 6.50509L30.3866 10.1031Z" fill="black"/>
<path d="M29.4899 9.50012L28.8967 9.10307L31.3036 5.50998L31.8967 5.90213L29.4899 9.50012Z" fill="black"/>
<path d="M28.5931 8.90208L28 8.50503L30.4068 4.91194L31 5.30409L28.5931 8.90208Z" fill="black"/>
</svg>
